<?xml version="1.0" encoding="UTF-8"?>
<svg id="Layer_2" data-name="Layer 2" xmlns="http://www.w3.org/2000/svg" viewBox="0 0 2560 601">
  <defs>
    <style>
      .cls-1 {
        fill: #749fb2;
      }
    </style>
  </defs>
  <g id="Layer_1-2" data-name="Layer 1">
    <path class="cls-1" d="m1439.56,0c.65,0,1.94,0,2.57,0,.02,75.68.02,151.37,0,227.05-.24,1.32.44,3.15,2.08,2.99,7.42.14,14.85-.03,22.28-.05.04,9.86-.12,19.72.06,29.57-.14,4.14,3.24,6.91,6.01,9.45-.01,14.4.01,28.79-.01,43.19.03,3.4-.5,7.02,1.3,10.12,10.03-.07,20.08-.01,30.13-.03.09-22.14-.17-44.31.12-66.43.32-.35.99-1.01,1.32-1.35,3.56-.35,7.15-.04,10.72-.12.07-3.57-.23-7.15.12-10.71.33-.33,1-.99,1.34-1.33,6.29.11,12.87-1.03,18.99.78.49-.27,1.45-.84,1.93-1.11-.17-5-.06-9.99-.07-14.98,4.92-.13,9.85.23,14.77-.12,2.89-2.32.88-6.79,1.43-10.02,6.92.27,14.04-.56,20.87.39,7.31,6.66,13.95,14.06,21.14,20.88,3.22.09,6.47.03,9.71-.27-.04,28.13-.03,56.27-.02,84.4h24.96c.33-.67,1-2,1.34-2.67.13-22.07-.02-44.15.08-66.22,4.03.01,8.09.02,12.14-.02.45-2.92-1.36-7.01,1.44-9.01,6.62-.35,13.26.01,19.89-.14.43,3.42-1.03,7.36.62,10.47,3.08,1.59,7.03.32,10.47.69.03,12.28-.07,24.58.05,36.86,1.62-.71,3.16-1.67,4.26-3.11,2.49-3.39,6.08-5.73,8.87-8.86,0-12.34-.01-24.69,0-37.02-.24-10.82.5-21.7-.41-32.48,7.01.2,14.06-.26,21.07.21,3.41,1.23,4.89,5.09,7.68,7.25.09,12.39-.04,24.78.06,37.17,3.74,2.97,6.86,6.62,10.28,9.94,1.5,1.31,1.92,3.34,1.86,5.26-.02,17.23-.01,34.45-.01,51.68h25.34c.01-42.57-.01-85.13.01-127.7,10.47,0,20.94,0,31.41,0,.08,18.45-.17,36.91.12,55.36.3.31.93.95,1.25,1.27,4.59.36,9.21,0,13.83.12.02,8.57-.06,17.15.04,25.72.33.63,1,1.86,1.35,2.49,3.49,1.71,4.99,5.58,8.26,7.58,1.2,1.67,2.57,3.22,4,4.72,3.72.03,7.45.04,11.18.01,2.83-2.88,5.65-5.78,8.61-8.52,0-9.99-.02-19.98.01-29.98,9.07-.01,18.14,0,27.22,0,.02,6.62-.14,13.24.09,19.85,3.45,3.14,6.63,6.56,9.95,9.83,2.06,2.1,4.5,3.95,5.74,6.72.64.06,1.91.19,2.54.25.18,4.53-.2,9.09.17,13.62.32.32.97.96,1.3,1.29,11.73.31,23.48.03,35.22.11.07-15.38-.08-30.79.02-46.17.31-.33.95-1,1.28-1.34,9.29-.3,18.62,0,27.94-.11.01-11.15-.01-22.3,0-33.44h39.53c0,17.91-.02,35.81-.01,53.71,7.43.01,14.86.01,22.31,0,0-5.27-.02-10.54.01-15.81,2.18-1.99,4.83-3.6,6.48-6.12.66-.89,1.14-2.36,2.54-2.26,7.29-.36,14.61-.01,21.92-.13,3-3.05,6.12-5.99,9.05-9.11,7.61-.02,15.21-.01,22.83-.01,0,17.91-.01,35.81,0,53.71h22.3c.08-15.83-.16-31.66.11-47.47.3-.2.93-.61,1.24-.81,5.97-.49,11.98.58,17.94-.25.04-4.09-.57-8.34.85-12.29,7.44.16,14.89-.06,22.35.08,1.45-.05,2.31,1.59,2.12,2.91-.02,19.28-.03,38.56-.01,57.84,6.74-.02,13.48.02,20.22.02,1.3.2,3.23-.39,3.06-2.06.2-8.42-.19-16.85.13-25.26,1.03-4.03,4.68-6.46,6.96-9.73.07-20.09,0-40.17.03-60.26,8.78-.02,17.56-.01,26.35-.01-.03,18.27.06,36.54-.05,54.8,7.22,1.14,14.6-.38,21.88.52,4.4,1.76,7.11,5.96,10.6,8.99,0,15.73-.01,31.45,0,47.18,4.72.01,9.45.01,14.19,0,.02-30.4-.03-60.8.02-91.19,10.81,0,21.64-.07,32.46.01,1.64-.23,2,1.79,1.89,3.01-.01,15.2-.14,30.4.06,45.61,6.08.02,12.17-.01,18.26.01.02,17.56,0,35.13.01,52.69,16.22.04,32.44-.08,48.66.06,1.15-3.97.53-8.15.79-12.21.46-19.92.27-39.87-.39-59.78-.31-25.28-.33-50.56-.19-75.84,4.64-.24,9.29-.16,13.97-.17-.02-3.38-.01-6.76.02-10.15,4.7.03,9.43.05,14.16,0-.01,2.7-.01,5.4.01,8.11h9.12c0,25.34-.01,50.67,0,76.01h24.32c0-6.94-.01-13.88,0-20.83,2.88-2.82,5.74-5.67,8.55-8.56,6.26,0,12.53-.01,18.81,0,.04,27.49-.07,54.98.05,82.46.33.67,1,2,1.34,2.67,2.47-.35,6.01,1.14,7.61-1.45.47-4.59-.25-9.21.25-13.8,2.9-4.14,7.07-7.27,10.43-11.06,3.56-.05,7.14-.06,10.72-.04.02-23.32,0-46.65,0-69.97-.25-2.47,1.11-4.71,2.99-6.22,3.35-3.02,6.13-6.68,9.82-9.33,1.14-1.5,2-4.01,4.36-3.63,6.43-.12,12.87.02,19.32-.03.04,43.71-.08,87.42.05,131.12.33.66,1,1.99,1.34,2.65h30.03c0-22.98-.01-45.94,0-68.92,9.46-.01,18.91,0,28.38,0v347.62H0v-278.71h9.12c.05-26.33-.07-52.66.05-78.99,3.02-.06,6.03-.07,9.05-.07.02-1.81.04-3.63.07-5.43.33-.67,1-2,1.34-2.67,5.28,0,10.55,0,15.83.01.03,25.34,0,50.66.01,76,.02,3.73-.39,7.56.81,11.18,4.31-.17,8.64.21,12.94-.15.33-.33.99-1,1.33-1.34.29-22.47.03-44.97.12-67.46,7.09-.01,14.19.01,21.28,0,.01-22.98-.01-45.95,0-68.93,3.23-.04,6.47.21,9.69-.1,2.92-2.29.9-6.8,1.45-10.02,7.73.04,15.46-.11,23.19.09.07,3.01.08,6.01.06,9.02,2.38,0,4.77,0,7.16.02,0,34.46.04,68.93-.03,103.38,0,1.84.27,3.69.59,5.51,11.97-.29,23.95.19,35.92-.24.14,9.57-.19,19.15.13,28.71.32.35.99,1.01,1.33,1.35,8.62.31,17.28.02,25.91.12.15-24.82-.27-49.66.21-74.47,1.61-.08,3.23-.16,4.85-.24.06-3.33-.21-6.68.12-9.99,2.2-2.84,6.51-.94,9.63-1.43.44-3.71.42-7.44.31-11.16,7.03-.02,14.06.04,21.08-.03,2.07,3.74,1.11,8.11,1.28,12.18,2.03.01,4.05.02,6.08.03.02,28.37,0,56.73.01,85.11h45.61v-12.16c3.56-.63,8.41,1.55,11.03-1.45.2-23.83.21-47.69-.01-71.52h22.85c4.52-2.32,7.55-6.57,11.1-10.05,7.64-.17,15.28-.05,22.93-.07.06,14.49-.12,28.99.09,43.5,6.04.14,12.09.05,18.14.06.02-12.83,0-25.66.01-38.5,5.4-.01,10.8.01,16.21,0v-8.14c8.74-.94,17.61-.71,26.37-.14.07,3.95-.26,7.93.1,11.89,2.54,3.01,7.4.79,10.9,1.55.18,5.37.09,10.74.11,16.11,3.72,0,7.44.01,11.16.01.01,13.17-.01,26.36,0,39.54,2.89.01,5.8-.2,8.67.11,2.01.86,1.46,3.22,1.43,4.95-.97,8.09.46,16.2.03,24.32,7.62-.11,15.26.2,22.88-.12,1.96-.88,1.36-3.21,1.48-4.89-.22-4.43.5-8.94-.69-13.27,3.92.07,7.85.04,11.8.04,0-53.73.03-107.47-.02-161.2,3.38-.54,6.8-.47,10.18-.86.05-3.94-.27-7.9.09-11.82.66-1.63,2.46-1.5,3.9-1.49,13.85.08,27.72,0,41.58.05,0,54.05-.01,108.1,0,162.14h34.46c0-10.81.02-21.63-.03-32.43-.12-1.72.39-3.34,1.03-4.9,7.77.32,15.56.32,23.32-.03-.02-22.69.02-45.38-.02-68.06.09-2.57-.48-5.33.82-7.7.07-.47.23-1.41.3-1.88,2.3-3.37,5.87-5.51,8.46-8.62,10.12.03,20.26-.06,30.38.05,1.05.83,2.14,1.64,3.22,2.45,1.76,2.39,3.82,4.55,5.96,6.62,4.23,0,8.45,0,12.68,0,.02,18.92,0,37.83.01,56.75,2.1,0,4.21,0,6.32-.01.5,1.99.85,4.02.81,6.09-.08,10.47-.03,20.94-.04,31.42,6.1-.02,12.2.02,18.31.02,1.75.07,3.41-.54,5.04-1.15-.1-67.2.01-134.4-.06-201.61-.44-3.08,2.58-4.81,4.37-6.79,11.88-11.78,23.6-23.68,35.49-35.45,1.03-1.31,2.76-1.24,4.28-1.42.16,7.53.9,15.13-.21,22.6.22.47.68,1.4.9,1.86,10.4-.02,20.8-.01,31.2-.01,0,44.28.01,88.55-.01,132.82-.22,1.31.62,2.98,2.12,2.94,5.37.17,10.75-.03,16.13.04.04-15.24-.07-30.48.04-45.72-.15-3.01,2.61-4.68,4.55-6.47,2.37-2.5,4.77-4.98,6.98-7.62,12.35.03,24.72,0,37.07,0,0,49.66-.01,99.32,0,148.98,7.45.02,14.9-.01,22.36,0-.03,15.72-.21,31.46.06,47.17.32.35.98,1.02,1.32,1.36,10.65.3,21.33.03,32.01.12.01-8.11-.01-16.21.01-24.31,3.91-.02,7.82.02,11.75-.04.87-1.97,2.88-3.02,3.84-4.9.31-.06.93-.19,1.25-.26.65-1.29,1.31-2.8,3.07-2.75,5.17-.43,10.37-.03,15.56-.16-.01-22.61.02-45.22-.01-67.83.11-2.61-.57-5.46.88-7.82.07-1.34.13-2.68.21-4,1.42-.63,2.37-1.89,3.55-2.87,1.19-1.5,2.54-2.86,4.06-4.04,1.44-1.93,3.46-3.3,4.91-5.22,1.05-.95,2.1-1.94,3.16-2.91,1.08-1.3,2.35-2.43,3.67-3.52,12.28-.07,24.6-.19,36.87.02.34.33,1.01,1,1.35,1.34.47,4.08-.23,8.21.24,12.29.33.33,1,1,1.34,1.34,8.96.32,17.94.01,26.92.12.02,37.6-.03,75.2.02,112.8,1.41-.2,3.11-.13,3.38-1.92,1.6-1.11,2.98-2.48,4.15-4.03,2.67-2.07,4.92-4.54,7.22-6.98,1.23-1.46,2.56-2.82,4.05-4.02,1.1-1.6,3.41-2.49,3.38-4.7.29-8.08.01-16.17.11-24.24,3.73-.01,7.47-.04,11.21.03.21-1.36.43-2.74.47-4.11-.16-9.78,1.08-19.55.25-29.31-.69-7.06.04-14.17-.49-21.23.21-.56.64-1.66.86-2.22,2.98.1,5.98.09,8.98.08-.02-3.33,0-6.66.02-9.98,7.42-.19,14.84-.14,22.26-.05.01,3.34.02,6.69.02,10.03,4.59.05,9.19.05,13.78,0,.34.67,1.02,2,1.37,2.67.06,3.34.06,6.69.03,10.04,1.24,1.31,2.4,2.69,3.5,4.12,3.7,2.45,5.59,6.93,9.67,8.84,2.78,5.75-.76,12.72,2.27,18.39,5.89,6.52,12.49,12.4,18.53,18.78,5.87.85,11.81.15,17.71.32,5.08-.08,10.17.29,15.24-.17-.02-6.48-.01-12.94-.01-19.42,3.4,0,6.79-.01,10.2,0,.04-2.59-.33-5.16-.58-7.73,1.18-1.88,3.8-.81,5.64-1.08,4.03.45,8.36-.95,12.19.78-.17,9.09-.05,18.19-.08,27.29h22.3c.01-19.59-.02-39.18.01-58.77,3.36-.01,6.74-.01,10.12-.01-.01-3.72,0-7.43.01-11.14,7.42-.02,14.85-.01,22.29-.01-.01,3.72,0,7.43,0,11.15,3.03,0,6.06,0,9.1.02.02,33.23.06,66.47-.02,99.7,4.82-4.78,9.79-9.45,14.44-14.4,2.36-2.92,5.1-5.59,8.49-7.29,3.34-.6,8.02,1.51,10.43-1.44.36-5.9-.06-11.83.19-17.74,4.02-.05,8.05-.06,12.08-.07.02-29.39,0-58.78.01-88.18,2.55-.42,6.09,1.1,8-1.07.33-5.4,0-10.81.08-16.21.02-1.38-.27-3.25,1.41-3.82,1.54-.27,3.12-.17,4.71-.2.23-7.28.1-14.57.15-21.86.62-.35,1.85-1.03,2.48-1.38,5.2-.05,10.41-.05,15.62-.07,1.31-.23,2.95.6,2.98,2.09.15,6.74-.04,13.49.04,20.23,2.02,0,4.04,0,6.08.02.01,7.77-.02,15.55.01,23.32,3,0,6,.04,9.02.11.16,6.04.05,12.08.09,18.12,2.62.01,5.26.01,7.92-.01,1.71,4.89,1.15,10.11,1.21,15.19.01,19.77-.02,39.54.01,59.32,11.89,12.06,23.95,23.95,35.9,35.96h12.74c.01-16.87-.01-33.75.01-50.61.05-4.61-.58-9.36,1.17-13.76,1.37-1.89,3.02-3.55,4.91-4.94.01-67.62,0-135.24,0-202.85,16.43-16.3,32.73-32.73,49.09-49.1Z"/>
  </g>
</svg>